<svg xmlns="http://www.w3.org/2000/svg" width="9.95" height="8.853" viewBox="0 0 9.95 8.853"><path d="M9.161.866A2.676,2.676,0,0,0,7.171,0,2.5,2.5,0,0,0,5.607.54a3.2,3.2,0,0,0-.632.66A3.2,3.2,0,0,0,4.343.54,2.5,2.5,0,0,0,2.78,0,2.676,2.676,0,0,0,.789.866,3.11,3.11,0,0,0,0,2.99,3.7,3.7,0,0,0,.987,5.415a21.043,21.043,0,0,0,2.47,2.319c.342.292.73.622,1.133.975a.584.584,0,0,0,.769,0c.4-.352.791-.683,1.134-.975a21.033,21.033,0,0,0,2.47-2.319A3.7,3.7,0,0,0,9.95,2.99,3.11,3.11,0,0,0,9.161.866Zm0,0" fill="rgba(138,199,49,0.9)"/></svg>
