<svg height="80" viewBox="0 0 76.8 80" width="76.8" xmlns="http://www.w3.org/2000/svg"><g fill="#0072c7"><path d="m62.968 26.491c-2.493-2.538-5.494-3.789-9.844-3.879-10.1-.236-21.633 10.224-31.3 10.242s-13.024-4.768-13.024-4.768-1.046 31.506 27.665 31.434 26.9-31.434 26.503-33.029z" transform="translate(2.816 8.471)"/><path d="m20.872 16.16a8.5 8.5 0 1 0 8.519 8.484 8.5 8.5 0 0 0 -8.519-8.484zm-.96 6.055a12.552 12.552 0 0 0 -6.251 5.329 7.769 7.769 0 1 1 14.429-5.764 12.529 12.529 0 0 0 -8.177.435z" transform="translate(5.161 7.274)"/><path d="m26.226 14.28a4.121 4.121 0 1 0 4.12 4.12 4.121 4.121 0 0 0 -4.12-4.12zm.907 7.505a3.513 3.513 0 0 1 -4.3-2.484 6.384 6.384 0 0 0 6.78-1.813 3.5 3.5 0 0 1 -2.48 4.3z" transform="translate(11.135 6.598)"/></g><path d="m44.231 77.24a36.249 36.249 0 0 1 -.143-72.5 35.88 35.88 0 0 1 28.218 13.631 38.737 38.737 0 0 0 -32.292-17.371c-21.569.048-39.062 18-39.014 40.08s17.588 39.968 39.157 39.92a38.832 38.832 0 0 0 32.243-17.5 35.9 35.9 0 0 1 -28.169 13.74z" fill="#8ac731" transform="translate(-1 -1)"/><path d="m35.8 5.25a42.714 42.714 0 0 0 -17.09 3.532 43.9 43.9 0 0 1 12.979-1.942c20.521-.031 37.216 13.7 37.252 30.645s-16.6 30.735-37.125 30.77a44.375 44.375 0 0 1 -12.979-1.9 42.75 42.75 0 0 0 17.112 3.471c20.832-.031 37.7-14.52 37.669-32.341s-16.986-32.266-37.818-32.235z" fill="#8ac731" transform="translate(3.181 2.454)"/><path d="m22.259 10.78a2.994 2.994 0 1 0 2.126.871 2.991 2.991 0 0 0 -2.126-.871zm.29 2.289a4.778 4.778 0 0 0 -2.665-.217 2.56 2.56 0 1 1 4.768 1.867 4.57 4.57 0 0 0 -2.1-1.655z" fill="#0072c7" transform="translate(9.676 4.721)"/></svg>